<svg width="1691" height="1314" viewBox="0 0 1691 1314" fill="none" xmlns="http://www.w3.org/2000/svg">
<g filter="url(#filter0_f_9_99)">
<path fill-rule="evenodd" clip-rule="evenodd" d="M1463.62 142.114C1406.02 92.4637 1328.53 56.7526 1240.44 44.6011C1215.7 36.8003 1189.71 30.934 1162.72 27.2777C1124.52 22.1017 1087.08 21.725 1051.31 25.5947C932.382 17.879 779.741 55.6087 630.93 138.14C607.018 151.402 584.021 165.367 562.025 179.906C531.103 195.768 503.116 216.545 479.098 241.205C459.884 257.093 441.792 273.38 424.91 289.934C366.391 341.834 309.725 407.214 259.883 483.326C101.126 725.756 68.8035 989.715 180.867 1091.29C255.437 1173.44 393.481 1237.44 556.366 1255.15C692.114 1269.9 817.795 1249.54 908.119 1205.16C921.417 1228.84 938.902 1248.41 960.665 1262.91C1093.97 1351.75 1337.3 1217.22 1504.16 962.429C1554.21 885.995 1591.7 807.421 1616.05 732.47C1630.62 699.31 1642.37 664.626 1650.98 628.723C1662.06 595.084 1668 559.503 1668 522.692C1668 517.207 1667.87 511.748 1667.61 506.32C1667.87 498.934 1668 491.515 1668 484.065H1665.8C1665.67 482.955 1665.54 481.845 1665.4 480.738C1671.78 428.118 1659.96 376.442 1633.99 329.873C1609.31 253.317 1547.56 185.607 1463.62 142.114ZM150.629 76.3405H178.991V92.0773H150.629V76.3405ZM23 92.0772H28.6724V93.5078H23V92.0772Z" fill="url(#paint0_radial_9_99)"/>
</g>
<defs>
<filter id="filter0_f_9_99" x="0" y="0" width="1691" height="1313.28" filterUnits="userSpaceOnUse" color-interpolation-filters="sRGB">
<feFlood flood-opacity="0" result="BackgroundImageFix"/>
<feBlend mode="normal" in="SourceGraphic" in2="BackgroundImageFix" result="shape"/>
<feGaussianBlur stdDeviation="11.5" result="effect1_foregroundBlur_9_99"/>
</filter>
<radialGradient id="paint0_radial_9_99" cx="0" cy="0" r="1" gradientUnits="userSpaceOnUse" gradientTransform="translate(845.5 926.16) rotate(-25.5906) scale(1071.62 3668.55)">
<stop stop-color="#FF0199"/>
<stop offset="1" stop-color="#5008E9" stop-opacity="0"/>
</radialGradient>
</defs>
</svg>
